<?xml version="1.0" standalone="no"?>
<!DOCTYPE svg PUBLIC "-//W3C//DTD SVG 20010904//EN"
 "http://www.w3.org/TR/2001/REC-SVG-20010904/DTD/svg10.dtd">
<svg version="1.0" xmlns="http://www.w3.org/2000/svg"
 width="700.000000pt" height="700.000000pt" viewBox="0 0 700.000000 700.000000"
 preserveAspectRatio="xMidYMid meet">
<metadata>
Created by potrace 1.14, written by Peter Selinger 2001-2017
</metadata>
<g transform="translate(0.000000,700.000000) scale(0.100000,-0.100000)"
fill="#000000" stroke="none">
<path d="M2217 6044 c-1 -1 -29 -4 -62 -8 -83 -8 -194 -40 -282 -81 -253 -117
-440 -327 -527 -593 -46 -139 -46 -108 -43 -1892 2 -927 6 -1701 11 -1720 35
-153 109 -313 193 -418 56 -70 145 -155 198 -190 22 -15 42 -29 45 -32 3 -3
41 -24 85 -47 80 -41 190 -79 255 -89 19 -3 44 -8 55 -12 31 -9 1885 -11 1925
-1 29 7 180 154 821 796 433 434 792 798 798 810 8 15 11 388 11 1301 0 1128
-2 1290 -16 1373 -9 52 -20 99 -24 104 -4 6 -10 23 -14 40 -10 41 -42 110 -84
180 -150 251 -409 426 -697 471 -41 6 -2640 14 -2648 8z m2343 -1363 c72 -38
96 -111 60 -185 -39 -82 42 -77 -1121 -77 -970 0 -1033 2 -1062 18 -49 29 -72
68 -72 123 0 57 24 96 75 122 30 16 114 17 1059 17 980 1 1028 0 1061 -18z m0
-1059 c73 -36 101 -128 58 -192 -50 -74 35 -68 -1113 -69 -962 -1 -1032 0
-1064 17 -100 50 -105 184 -9 242 32 20 53 20 1063 20 961 0 1032 -1 1065 -18z
m-930 -1061 c99 -53 94 -203 -9 -245 -34 -13 -115 -15 -591 -15 -348 0 -561 4
-578 10 -62 24 -100 90 -88 154 8 39 49 93 80 105 12 5 275 9 586 9 533 1 567
0 600 -18z m1073 -600 c-382 -382 -520 -514 -524 -502 -8 22 -3 385 5 440 33
204 180 406 365 501 129 65 202 78 459 79 l214 1 -519 -519z"/>
</g>
</svg>
